<svg width="18" height="16" viewBox="0 0 18 16" fill="none" xmlns="http://www.w3.org/2000/svg">
<path d="M4.0299 15.7812H0.297321V5.26602H4.0299V15.7812ZM2.1616 3.83164C0.968302 3.83164 0 2.9668 0 1.92266C0 0.878516 0.968302 0.03125 2.1616 0.03125C3.35491 0.03125 4.32321 0.878516 4.32321 1.92266C4.32321 2.9668 3.35491 3.83164 2.1616 3.83164ZM18 15.7812H14.2754V10.6625C14.2754 9.44258 14.2473 7.87812 12.3348 7.87812C10.3942 7.87812 10.0969 9.20352 10.0969 10.5746V15.7812H6.36829V5.26602H9.9482V6.70039H10.0004C10.4986 5.87422 11.7161 5.00234 13.5321 5.00234C17.3089 5.00234 18.004 7.17852 18.004 10.0051V15.7812H18Z" fill="black"/>
</svg>
